<?xml version="1.0" standalone="no"?>
<!DOCTYPE svg PUBLIC "-//W3C//DTD SVG 20010904//EN"
 "http://www.w3.org/TR/2001/REC-SVG-20010904/DTD/svg10.dtd">
<svg version="1.0" xmlns="http://www.w3.org/2000/svg"
 width="390.000000pt" height="390.000000pt" viewBox="0 0 390.000000 390.000000"
 preserveAspectRatio="xMidYMid meet">
<metadata>
Created by potrace 1.14, written by Peter Selinger 2001-2017
</metadata>
<g transform="translate(0.000000,390.000000) scale(0.100000,-0.100000)"
fill="#000000" stroke="none">
<path d="M674 3885 c-8 -6 -14 -37 -16 -80 l-3 -70 -155 -3 c-85 -1 -157 -6
-160 -11 -8 -13 -6 -2394 2 -2407 5 -8 189 -11 625 -11 451 0 630 -4 663 -13
64 -17 119 -51 167 -104 l42 -46 135 0 c75 0 137 3 137 8 1 4 2 35 4 70 2 64
-10 90 -38 79 -42 -16 -41 -33 -41 915 0 497 4 928 7 958 17 148 102 291 211
355 80 47 126 50 642 49 263 -1 488 -2 500 -3 l21 -1 1 -822 c0 -453 1 -835 1
-850 1 -28 2 -28 70 -28 43 0 72 5 78 13 11 14 12 1832 1 1842 -8 9 -1181 9
-1227 0 -135 -24 -243 -97 -341 -227 -23 -32 -45 -58 -49 -58 -4 0 -15 16 -26
36 -26 48 -120 145 -174 179 -80 50 -145 67 -281 72 -179 6 -167 0 -165 77 1
36 -1 70 -5 76 -10 16 -606 20 -626 5z m462 -158 c13 -8 17 -794 4 -802 -4 -3
-38 15 -75 40 -36 25 -75 45 -85 45 -10 0 -47 -20 -83 -45 -37 -25 -69 -45
-72 -45 -6 0 -7 805 0 811 7 8 299 4 311 -4z m-483 -156 c4 -1 7 -215 7 -476
0 -261 2 -475 5 -475 3 0 73 45 156 101 123 82 154 99 172 92 12 -4 84 -50
160 -101 76 -51 141 -91 145 -88 4 2 7 212 7 466 0 254 3 467 7 473 10 16 210
10 273 -8 122 -35 216 -142 265 -300 21 -69 21 -78 21 -984 0 -502 -2 -915 -5
-918 -2 -3 -20 7 -38 21 -55 41 -139 73 -214 82 -38 4 -301 7 -584 8 -283 1
-520 4 -527 9 -14 9 -17 2075 -3 2092 7 8 108 12 153 6z"/>
<path d="M16 3481 c-3 -5 -6 -540 -6 -1189 -1 -1166 -1 -1182 19 -1221 22 -43
62 -76 104 -86 15 -4 307 -8 649 -9 696 -1 636 5 733 -75 95 -78 120 -83 451
-84 160 0 295 2 301 6 11 7 12 131 2 142 -4 3 -132 7 -285 8 -271 2 -280 3
-324 25 -25 13 -58 37 -75 52 -16 16 -57 42 -90 57 l-60 28 -628 1 c-345 1
-630 4 -633 7 -3 3 -6 529 -6 1169 1 885 -2 1164 -11 1170 -17 11 -135 10
-141 -1z"/>
<path d="M3754 3483 c-13 -9 -17 -1661 -5 -1682 5 -8 32 -11 77 -9 l69 3 0
845 0 845 -65 3 c-36 1 -70 -1 -76 -5z"/>
<path d="M2795 2671 c-73 -19 -132 -67 -168 -136 -20 -39 -21 -54 -22 -487 0
-246 -4 -450 -8 -454 -4 -4 -16 4 -28 17 -88 103 -136 129 -228 124 -111 -7
-221 -96 -221 -181 0 -36 258 -571 325 -674 23 -36 69 -94 101 -130 58 -64 60
-67 59 -120 l-1 -55 -74 -3 c-41 -2 -77 -7 -80 -12 -8 -12 -6 -533 2 -545 4
-7 253 -10 720 -9 392 1 716 2 721 3 4 0 6 126 5 278 l-3 278 -37 5 -37 5 2
95 c2 86 5 101 37 165 l35 70 3 266 c3 250 2 270 -18 330 -32 96 -81 154 -171
203 -51 29 -95 40 -392 101 -115 23 -213 47 -218 52 -6 6 -10 131 -10 306 0
327 -5 363 -60 430 -54 66 -154 99 -234 78z m88 -162 c45 -21 47 -40 47 -419
0 -211 4 -361 9 -365 9 -5 229 -53 321 -70 19 -4 40 -8 45 -9 6 -2 28 -6 50
-10 22 -5 65 -14 95 -22 31 -7 73 -16 93 -19 92 -15 164 -72 187 -147 8 -30
12 -109 11 -258 0 -118 -2 -222 -4 -230 -1 -8 -15 -41 -31 -74 -35 -73 -36
-79 -44 -206 l-7 -105 -425 -3 c-234 -1 -434 0 -445 2 -19 5 -21 13 -22 100
l0 95 -62 57 c-66 61 -131 146 -174 229 -44 84 -237 487 -237 495 0 13 49 29
76 24 16 -3 51 -31 92 -75 99 -106 110 -112 209 -114 46 -1 87 3 90 8 3 6 7
247 8 536 0 289 5 534 9 544 9 18 52 46 73 47 7 0 23 -5 36 -11z m853 -2111
c8 -13 6 -219 -1 -227 -7 -6 -1101 -10 -1120 -4 -7 2 -10 46 -9 121 1 64 2
118 3 118 5 8 1123 -1 1127 -8z"/>
</g>
</svg>
